%TF.GenerationSoftware,KiCad,Pcbnew,(6.0.10-0)*%
%TF.CreationDate,2023-02-19T00:01:58-07:00*%
%TF.ProjectId,andyvision_kicad,616e6479-7669-4736-996f-6e5f6b696361,1.0*%
%TF.SameCoordinates,Original*%
%TF.FileFunction,Legend,Top*%
%TF.FilePolarity,Positive*%
%FSLAX46Y46*%
G04 Gerber Fmt 4.6, Leading zero omitted, Abs format (unit mm)*
G04 Created by KiCad (PCBNEW (6.0.10-0)) date 2023-02-19 00:01:58*
%MOMM*%
%LPD*%
G01*
G04 APERTURE LIST*
%ADD10C,0.300000*%
%ADD11C,0.150000*%
%ADD12C,0.120000*%
G04 APERTURE END LIST*
D10*
X131928571Y-86250000D02*
X132642857Y-86250000D01*
X131785714Y-86678571D02*
X132285714Y-85178571D01*
X132785714Y-86678571D01*
X133285714Y-86678571D02*
X133285714Y-85178571D01*
X134142857Y-86678571D01*
X134142857Y-85178571D01*
X134857142Y-86678571D02*
X134857142Y-85178571D01*
X135214285Y-85178571D01*
X135428571Y-85250000D01*
X135571428Y-85392857D01*
X135642857Y-85535714D01*
X135714285Y-85821428D01*
X135714285Y-86035714D01*
X135642857Y-86321428D01*
X135571428Y-86464285D01*
X135428571Y-86607142D01*
X135214285Y-86678571D01*
X134857142Y-86678571D01*
X136642857Y-85964285D02*
X136642857Y-86678571D01*
X136142857Y-85178571D02*
X136642857Y-85964285D01*
X137142857Y-85178571D01*
X137428571Y-85178571D02*
X137928571Y-86678571D01*
X138428571Y-85178571D01*
X138928571Y-86678571D02*
X138928571Y-85178571D01*
X139571428Y-86607142D02*
X139785714Y-86678571D01*
X140142857Y-86678571D01*
X140285714Y-86607142D01*
X140357142Y-86535714D01*
X140428571Y-86392857D01*
X140428571Y-86250000D01*
X140357142Y-86107142D01*
X140285714Y-86035714D01*
X140142857Y-85964285D01*
X139857142Y-85892857D01*
X139714285Y-85821428D01*
X139642857Y-85750000D01*
X139571428Y-85607142D01*
X139571428Y-85464285D01*
X139642857Y-85321428D01*
X139714285Y-85250000D01*
X139857142Y-85178571D01*
X140214285Y-85178571D01*
X140428571Y-85250000D01*
X141071428Y-86678571D02*
X141071428Y-85178571D01*
X142071428Y-85178571D02*
X142357142Y-85178571D01*
X142500000Y-85250000D01*
X142642857Y-85392857D01*
X142714285Y-85678571D01*
X142714285Y-86178571D01*
X142642857Y-86464285D01*
X142500000Y-86607142D01*
X142357142Y-86678571D01*
X142071428Y-86678571D01*
X141928571Y-86607142D01*
X141785714Y-86464285D01*
X141714285Y-86178571D01*
X141714285Y-85678571D01*
X141785714Y-85392857D01*
X141928571Y-85250000D01*
X142071428Y-85178571D01*
X143357142Y-86678571D02*
X143357142Y-85178571D01*
X144214285Y-86678571D01*
X144214285Y-85178571D01*
X146857142Y-86678571D02*
X146000000Y-86678571D01*
X146428571Y-86678571D02*
X146428571Y-85178571D01*
X146285714Y-85392857D01*
X146142857Y-85535714D01*
X146000000Y-85607142D01*
X147500000Y-86535714D02*
X147571428Y-86607142D01*
X147500000Y-86678571D01*
X147428571Y-86607142D01*
X147500000Y-86535714D01*
X147500000Y-86678571D01*
X149000000Y-86678571D02*
X148142857Y-86678571D01*
X148571428Y-86678571D02*
X148571428Y-85178571D01*
X148428571Y-85392857D01*
X148285714Y-85535714D01*
X148142857Y-85607142D01*
X151214285Y-87250000D02*
X151142857Y-87178571D01*
X151000000Y-86964285D01*
X150928571Y-86821428D01*
X150857142Y-86607142D01*
X150785714Y-86250000D01*
X150785714Y-85964285D01*
X150857142Y-85607142D01*
X150928571Y-85392857D01*
X151000000Y-85250000D01*
X151142857Y-85035714D01*
X151214285Y-84964285D01*
X151785714Y-86678571D02*
X151785714Y-85178571D01*
X152142857Y-85178571D01*
X152357142Y-85250000D01*
X152500000Y-85392857D01*
X152571428Y-85535714D01*
X152642857Y-85821428D01*
X152642857Y-86035714D01*
X152571428Y-86321428D01*
X152500000Y-86464285D01*
X152357142Y-86607142D01*
X152142857Y-86678571D01*
X151785714Y-86678571D01*
X153928571Y-86678571D02*
X153928571Y-85892857D01*
X153857142Y-85750000D01*
X153714285Y-85678571D01*
X153428571Y-85678571D01*
X153285714Y-85750000D01*
X153928571Y-86607142D02*
X153785714Y-86678571D01*
X153428571Y-86678571D01*
X153285714Y-86607142D01*
X153214285Y-86464285D01*
X153214285Y-86321428D01*
X153285714Y-86178571D01*
X153428571Y-86107142D01*
X153785714Y-86107142D01*
X153928571Y-86035714D01*
X154642857Y-86678571D02*
X154642857Y-85678571D01*
X154642857Y-85178571D02*
X154571428Y-85250000D01*
X154642857Y-85321428D01*
X154714285Y-85250000D01*
X154642857Y-85178571D01*
X154642857Y-85321428D01*
X155285714Y-86607142D02*
X155428571Y-86678571D01*
X155714285Y-86678571D01*
X155857142Y-86607142D01*
X155928571Y-86464285D01*
X155928571Y-86392857D01*
X155857142Y-86250000D01*
X155714285Y-86178571D01*
X155500000Y-86178571D01*
X155357142Y-86107142D01*
X155285714Y-85964285D01*
X155285714Y-85892857D01*
X155357142Y-85750000D01*
X155500000Y-85678571D01*
X155714285Y-85678571D01*
X155857142Y-85750000D01*
X156428571Y-85678571D02*
X156785714Y-86678571D01*
X157142857Y-85678571D02*
X156785714Y-86678571D01*
X156642857Y-87035714D01*
X156571428Y-87107142D01*
X156428571Y-87178571D01*
X157571428Y-87250000D02*
X157642857Y-87178571D01*
X157785714Y-86964285D01*
X157857142Y-86821428D01*
X157928571Y-86607142D01*
X158000000Y-86250000D01*
X158000000Y-85964285D01*
X157928571Y-85607142D01*
X157857142Y-85392857D01*
X157785714Y-85250000D01*
X157642857Y-85035714D01*
X157571428Y-84964285D01*
D11*
%TO.C,A0*%
X123285714Y-100991666D02*
X123761904Y-100991666D01*
X123190476Y-101277380D02*
X123523809Y-100277380D01*
X123857142Y-101277380D01*
X124380952Y-100277380D02*
X124476190Y-100277380D01*
X124571428Y-100325000D01*
X124619047Y-100372619D01*
X124666666Y-100467857D01*
X124714285Y-100658333D01*
X124714285Y-100896428D01*
X124666666Y-101086904D01*
X124619047Y-101182142D01*
X124571428Y-101229761D01*
X124476190Y-101277380D01*
X124380952Y-101277380D01*
X124285714Y-101229761D01*
X124238095Y-101182142D01*
X124190476Y-101086904D01*
X124142857Y-100896428D01*
X124142857Y-100658333D01*
X124190476Y-100467857D01*
X124238095Y-100372619D01*
X124285714Y-100325000D01*
X124380952Y-100277380D01*
X126552380Y-98477380D02*
X126647619Y-98477380D01*
X126742857Y-98525000D01*
X126790476Y-98572619D01*
X126838095Y-98667857D01*
X126885714Y-98858333D01*
X126885714Y-99096428D01*
X126838095Y-99286904D01*
X126790476Y-99382142D01*
X126742857Y-99429761D01*
X126647619Y-99477380D01*
X126552380Y-99477380D01*
X126457142Y-99429761D01*
X126409523Y-99382142D01*
X126361904Y-99286904D01*
X126314285Y-99096428D01*
X126314285Y-98858333D01*
X126361904Y-98667857D01*
X126409523Y-98572619D01*
X126457142Y-98525000D01*
X126552380Y-98477380D01*
X121685714Y-99477380D02*
X121114285Y-99477380D01*
X121400000Y-99477380D02*
X121400000Y-98477380D01*
X121304761Y-98620238D01*
X121209523Y-98715476D01*
X121114285Y-98763095D01*
%TO.C,A1*%
X123285714Y-95991666D02*
X123761904Y-95991666D01*
X123190476Y-96277380D02*
X123523809Y-95277380D01*
X123857142Y-96277380D01*
X124714285Y-96277380D02*
X124142857Y-96277380D01*
X124428571Y-96277380D02*
X124428571Y-95277380D01*
X124333333Y-95420238D01*
X124238095Y-95515476D01*
X124142857Y-95563095D01*
X121685714Y-94477380D02*
X121114285Y-94477380D01*
X121400000Y-94477380D02*
X121400000Y-93477380D01*
X121304761Y-93620238D01*
X121209523Y-93715476D01*
X121114285Y-93763095D01*
X126552380Y-93477380D02*
X126647619Y-93477380D01*
X126742857Y-93525000D01*
X126790476Y-93572619D01*
X126838095Y-93667857D01*
X126885714Y-93858333D01*
X126885714Y-94096428D01*
X126838095Y-94286904D01*
X126790476Y-94382142D01*
X126742857Y-94429761D01*
X126647619Y-94477380D01*
X126552380Y-94477380D01*
X126457142Y-94429761D01*
X126409523Y-94382142D01*
X126361904Y-94286904D01*
X126314285Y-94096428D01*
X126314285Y-93858333D01*
X126361904Y-93667857D01*
X126409523Y-93572619D01*
X126457142Y-93525000D01*
X126552380Y-93477380D01*
%TO.C,U1*%
X166554880Y-94746904D02*
X167364404Y-94746904D01*
X167459642Y-94699285D01*
X167507261Y-94651666D01*
X167554880Y-94556428D01*
X167554880Y-94365952D01*
X167507261Y-94270714D01*
X167459642Y-94223095D01*
X167364404Y-94175476D01*
X166554880Y-94175476D01*
X167554880Y-93175476D02*
X167554880Y-93746904D01*
X167554880Y-93461190D02*
X166554880Y-93461190D01*
X166697738Y-93556428D01*
X166792976Y-93651666D01*
X166840595Y-93746904D01*
%TO.C,A2*%
X123085714Y-90991666D02*
X123561904Y-90991666D01*
X122990476Y-91277380D02*
X123323809Y-90277380D01*
X123657142Y-91277380D01*
X123942857Y-90372619D02*
X123990476Y-90325000D01*
X124085714Y-90277380D01*
X124323809Y-90277380D01*
X124419047Y-90325000D01*
X124466666Y-90372619D01*
X124514285Y-90467857D01*
X124514285Y-90563095D01*
X124466666Y-90705952D01*
X123895238Y-91277380D01*
X124514285Y-91277380D01*
X121485714Y-89477380D02*
X120914285Y-89477380D01*
X121200000Y-89477380D02*
X121200000Y-88477380D01*
X121104761Y-88620238D01*
X121009523Y-88715476D01*
X120914285Y-88763095D01*
X126352380Y-88477380D02*
X126447619Y-88477380D01*
X126542857Y-88525000D01*
X126590476Y-88572619D01*
X126638095Y-88667857D01*
X126685714Y-88858333D01*
X126685714Y-89096428D01*
X126638095Y-89286904D01*
X126590476Y-89382142D01*
X126542857Y-89429761D01*
X126447619Y-89477380D01*
X126352380Y-89477380D01*
X126257142Y-89429761D01*
X126209523Y-89382142D01*
X126161904Y-89286904D01*
X126114285Y-89096428D01*
X126114285Y-88858333D01*
X126161904Y-88667857D01*
X126209523Y-88572619D01*
X126257142Y-88525000D01*
X126352380Y-88477380D01*
D12*
%TO.C,R12*%
X149120000Y-115300000D02*
X151860000Y-115300000D01*
X151860000Y-108760000D02*
X149120000Y-108760000D01*
X150490000Y-107990000D02*
X150490000Y-108760000D01*
X149120000Y-108760000D02*
X149120000Y-115300000D01*
X151860000Y-115300000D02*
X151860000Y-108760000D01*
X150490000Y-116070000D02*
X150490000Y-115300000D01*
%TO.C,R16*%
X120540000Y-115300000D02*
X120540000Y-108760000D01*
X119170000Y-116070000D02*
X119170000Y-115300000D01*
X120540000Y-108760000D02*
X117800000Y-108760000D01*
X117800000Y-108760000D02*
X117800000Y-115300000D01*
X119170000Y-107990000D02*
X119170000Y-108760000D01*
X117800000Y-115300000D02*
X120540000Y-115300000D01*
%TO.C,R6*%
X152190000Y-71880000D02*
X152190000Y-72650000D01*
X153560000Y-72650000D02*
X150820000Y-72650000D01*
X150820000Y-72650000D02*
X150820000Y-79190000D01*
X153560000Y-79190000D02*
X153560000Y-72650000D01*
X150820000Y-79190000D02*
X153560000Y-79190000D01*
X152190000Y-79960000D02*
X152190000Y-79190000D01*
%TO.C,R11*%
X147530000Y-115300000D02*
X147530000Y-108760000D01*
X146160000Y-116070000D02*
X146160000Y-115300000D01*
X144790000Y-108760000D02*
X144790000Y-115300000D01*
X144790000Y-115300000D02*
X147530000Y-115300000D01*
X147530000Y-108760000D02*
X144790000Y-108760000D01*
X146160000Y-107990000D02*
X146160000Y-108760000D01*
%TO.C,J2*%
X112725000Y-100575000D02*
X112725000Y-101825000D01*
X115275000Y-87175000D02*
X118225000Y-87175000D01*
X113775000Y-101525000D02*
X113775000Y-99725000D01*
X113015000Y-86415000D02*
X113015000Y-101535000D01*
X112725000Y-101825000D02*
X113975000Y-101825000D01*
X113025000Y-98225000D02*
X113775000Y-98225000D01*
X113025000Y-99725000D02*
X113025000Y-101525000D01*
X115275000Y-100775000D02*
X118225000Y-100775000D01*
X113025000Y-101525000D02*
X113775000Y-101525000D01*
X113775000Y-98225000D02*
X113775000Y-89725000D01*
X118225000Y-87175000D02*
X118225000Y-93975000D01*
X113025000Y-86425000D02*
X113025000Y-88225000D01*
X113015000Y-101535000D02*
X118985000Y-101535000D01*
X113775000Y-88225000D02*
X113775000Y-86425000D01*
X113025000Y-88225000D02*
X113775000Y-88225000D01*
X113775000Y-99725000D02*
X113025000Y-99725000D01*
X118225000Y-100775000D02*
X118225000Y-93975000D01*
X118985000Y-86415000D02*
X113015000Y-86415000D01*
X113775000Y-86425000D02*
X113025000Y-86425000D01*
X115275000Y-86425000D02*
X115275000Y-87175000D01*
X115275000Y-101525000D02*
X115275000Y-100775000D01*
X118985000Y-101535000D02*
X118985000Y-86415000D01*
X113775000Y-89725000D02*
X113025000Y-89725000D01*
X113025000Y-89725000D02*
X113025000Y-98225000D01*
%TO.C,J9*%
X141985000Y-123755000D02*
X141235000Y-123755000D01*
X132685000Y-125255000D02*
X132685000Y-126005000D01*
X129375000Y-126015000D02*
X141995000Y-126015000D01*
X142285000Y-126305000D02*
X142285000Y-125055000D01*
X141995000Y-120045000D02*
X129375000Y-120045000D01*
X129385000Y-126005000D02*
X131185000Y-126005000D01*
X141235000Y-120805000D02*
X135685000Y-120805000D01*
X140185000Y-126005000D02*
X141985000Y-126005000D01*
X141985000Y-126005000D02*
X141985000Y-125255000D01*
X129385000Y-125255000D02*
X129385000Y-126005000D01*
X141985000Y-125255000D02*
X140185000Y-125255000D01*
X130135000Y-120805000D02*
X135685000Y-120805000D01*
X131185000Y-126005000D02*
X131185000Y-125255000D01*
X140185000Y-125255000D02*
X140185000Y-126005000D01*
X129385000Y-123755000D02*
X130135000Y-123755000D01*
X130135000Y-123755000D02*
X130135000Y-120805000D01*
X131185000Y-125255000D02*
X129385000Y-125255000D01*
X132685000Y-126005000D02*
X138685000Y-126005000D01*
X141995000Y-126015000D02*
X141995000Y-120045000D01*
X141235000Y-123755000D02*
X141235000Y-120805000D01*
X141035000Y-126305000D02*
X142285000Y-126305000D01*
X138685000Y-126005000D02*
X138685000Y-125255000D01*
X138685000Y-125255000D02*
X132685000Y-125255000D01*
X129375000Y-120045000D02*
X129375000Y-126015000D01*
%TO.C,R13*%
X130485000Y-107990000D02*
X130485000Y-108760000D01*
X129115000Y-115300000D02*
X131855000Y-115300000D01*
X129115000Y-108760000D02*
X129115000Y-115300000D01*
X131855000Y-115300000D02*
X131855000Y-108760000D01*
X130485000Y-116070000D02*
X130485000Y-115300000D01*
X131855000Y-108760000D02*
X129115000Y-108760000D01*
%TO.C,Q4*%
X164860000Y-74320000D02*
X164860000Y-70720000D01*
X160409999Y-72520000D02*
G75*
G03*
X164848478Y-74358478I2600001J0D01*
G01*
X164848478Y-70681522D02*
G75*
G03*
X160410000Y-72520000I-1838478J-1838478D01*
G01*
%TO.C,A0*%
X126050000Y-100025000D02*
X121950000Y-100025000D01*
X121950000Y-98025000D02*
X126050000Y-98025000D01*
X121950000Y-100025000D02*
X121950000Y-98025000D01*
X126050000Y-98025000D02*
X126050000Y-100025000D01*
%TO.C,J4*%
X130310000Y-61645000D02*
X129060000Y-61645000D01*
X141960000Y-64195000D02*
X141210000Y-64195000D01*
X141970000Y-67905000D02*
X141970000Y-61935000D01*
X140160000Y-61945000D02*
X140160000Y-62695000D01*
X138660000Y-62695000D02*
X138660000Y-61945000D01*
X130110000Y-64195000D02*
X130110000Y-67145000D01*
X129360000Y-62695000D02*
X131160000Y-62695000D01*
X140160000Y-62695000D02*
X141960000Y-62695000D01*
X129360000Y-61945000D02*
X129360000Y-62695000D01*
X131160000Y-61945000D02*
X129360000Y-61945000D01*
X141960000Y-61945000D02*
X140160000Y-61945000D01*
X141210000Y-67145000D02*
X135660000Y-67145000D01*
X138660000Y-61945000D02*
X132660000Y-61945000D01*
X130110000Y-67145000D02*
X135660000Y-67145000D01*
X129360000Y-64195000D02*
X130110000Y-64195000D01*
X132660000Y-62695000D02*
X138660000Y-62695000D01*
X129350000Y-67905000D02*
X141970000Y-67905000D01*
X132660000Y-61945000D02*
X132660000Y-62695000D01*
X141970000Y-61935000D02*
X129350000Y-61935000D01*
X129350000Y-61935000D02*
X129350000Y-67905000D01*
X141960000Y-62695000D02*
X141960000Y-61945000D01*
X131160000Y-62695000D02*
X131160000Y-61945000D01*
X129060000Y-61645000D02*
X129060000Y-62895000D01*
X141210000Y-64195000D02*
X141210000Y-67145000D01*
%TO.C,A1*%
X121950000Y-93025000D02*
X126050000Y-93025000D01*
X126050000Y-95025000D02*
X121950000Y-95025000D01*
X121950000Y-95025000D02*
X121950000Y-93025000D01*
X126050000Y-93025000D02*
X126050000Y-95025000D01*
%TO.C,R4*%
X135160000Y-72650000D02*
X135160000Y-79190000D01*
X137900000Y-72650000D02*
X135160000Y-72650000D01*
X136530000Y-79960000D02*
X136530000Y-79190000D01*
X135160000Y-79190000D02*
X137900000Y-79190000D01*
X137900000Y-79190000D02*
X137900000Y-72650000D01*
X136530000Y-71880000D02*
X136530000Y-72650000D01*
%TO.C,Q7*%
X137835000Y-113630000D02*
X137835000Y-117230000D01*
X142285001Y-115430000D02*
G75*
G03*
X137846522Y-113591522I-2600001J0D01*
G01*
X137846522Y-117268478D02*
G75*
G03*
X142285000Y-115430000I1838478J1838478D01*
G01*
%TO.C,R8*%
X167850000Y-71880000D02*
X167850000Y-72650000D01*
X167850000Y-79960000D02*
X167850000Y-79190000D01*
X169220000Y-79190000D02*
X169220000Y-72650000D01*
X166480000Y-79190000D02*
X169220000Y-79190000D01*
X166480000Y-72650000D02*
X166480000Y-79190000D01*
X169220000Y-72650000D02*
X166480000Y-72650000D01*
%TO.C,Q6*%
X153480000Y-113630000D02*
X153480000Y-117230000D01*
X157930001Y-115430000D02*
G75*
G03*
X153491522Y-113591522I-2600001J0D01*
G01*
X153491522Y-117268478D02*
G75*
G03*
X157930000Y-115430000I1838478J1838478D01*
G01*
%TO.C,R7*%
X172180000Y-71880000D02*
X172180000Y-72650000D01*
X170810000Y-72650000D02*
X170810000Y-79190000D01*
X173550000Y-79190000D02*
X173550000Y-72650000D01*
X170810000Y-79190000D02*
X173550000Y-79190000D01*
X173550000Y-72650000D02*
X170810000Y-72650000D01*
X172180000Y-79960000D02*
X172180000Y-79190000D01*
%TO.C,Q3*%
X149200000Y-74320000D02*
X149200000Y-70720000D01*
X144749999Y-72520000D02*
G75*
G03*
X149188478Y-74358478I2600001J0D01*
G01*
X149188478Y-70681522D02*
G75*
G03*
X144750000Y-72520000I-1838478J-1838478D01*
G01*
%TO.C,Q5*%
X169140000Y-113630000D02*
X169140000Y-117230000D01*
X173590001Y-115430000D02*
G75*
G03*
X169151522Y-113591522I-2600001J0D01*
G01*
X169151522Y-117268478D02*
G75*
G03*
X173590000Y-115430000I1838478J1838478D01*
G01*
%TO.C,J8*%
X145060000Y-126005000D02*
X146860000Y-126005000D01*
X157660000Y-126005000D02*
X157660000Y-125255000D01*
X146860000Y-125255000D02*
X145060000Y-125255000D01*
X157660000Y-123755000D02*
X156910000Y-123755000D01*
X156910000Y-120805000D02*
X151360000Y-120805000D01*
X145050000Y-120045000D02*
X145050000Y-126015000D01*
X154360000Y-125255000D02*
X148360000Y-125255000D01*
X157670000Y-120045000D02*
X145050000Y-120045000D01*
X145810000Y-120805000D02*
X151360000Y-120805000D01*
X145060000Y-123755000D02*
X145810000Y-123755000D01*
X156910000Y-123755000D02*
X156910000Y-120805000D01*
X148360000Y-126005000D02*
X154360000Y-126005000D01*
X154360000Y-126005000D02*
X154360000Y-125255000D01*
X145810000Y-123755000D02*
X145810000Y-120805000D01*
X145060000Y-125255000D02*
X145060000Y-126005000D01*
X157660000Y-125255000D02*
X155860000Y-125255000D01*
X156710000Y-126305000D02*
X157960000Y-126305000D01*
X155860000Y-125255000D02*
X155860000Y-126005000D01*
X145050000Y-126015000D02*
X157670000Y-126015000D01*
X155860000Y-126005000D02*
X157660000Y-126005000D01*
X157960000Y-126305000D02*
X157960000Y-125055000D01*
X157670000Y-126015000D02*
X157670000Y-120045000D01*
X146860000Y-126005000D02*
X146860000Y-125255000D01*
X148360000Y-125255000D02*
X148360000Y-126005000D01*
%TO.C,J5*%
X145010000Y-67905000D02*
X157630000Y-67905000D01*
X145020000Y-62695000D02*
X146820000Y-62695000D01*
X145770000Y-67145000D02*
X151320000Y-67145000D01*
X144720000Y-61645000D02*
X144720000Y-62895000D01*
X156870000Y-64195000D02*
X156870000Y-67145000D01*
X154320000Y-61945000D02*
X148320000Y-61945000D01*
X154320000Y-62695000D02*
X154320000Y-61945000D01*
X145010000Y-61935000D02*
X145010000Y-67905000D01*
X157620000Y-61945000D02*
X155820000Y-61945000D01*
X157630000Y-67905000D02*
X157630000Y-61935000D01*
X155820000Y-61945000D02*
X155820000Y-62695000D01*
X148320000Y-61945000D02*
X148320000Y-62695000D01*
X145770000Y-64195000D02*
X145770000Y-67145000D01*
X145020000Y-64195000D02*
X145770000Y-64195000D01*
X157630000Y-61935000D02*
X145010000Y-61935000D01*
X156870000Y-67145000D02*
X151320000Y-67145000D01*
X145970000Y-61645000D02*
X144720000Y-61645000D01*
X157620000Y-64195000D02*
X156870000Y-64195000D01*
X155820000Y-62695000D02*
X157620000Y-62695000D01*
X146820000Y-62695000D02*
X146820000Y-61945000D01*
X148320000Y-62695000D02*
X154320000Y-62695000D01*
X145020000Y-61945000D02*
X145020000Y-62695000D01*
X157620000Y-62695000D02*
X157620000Y-61945000D01*
X146820000Y-61945000D02*
X145020000Y-61945000D01*
%TO.C,J10*%
X126340000Y-126005000D02*
X126340000Y-125255000D01*
X115540000Y-126005000D02*
X115540000Y-125255000D01*
X115540000Y-125255000D02*
X113740000Y-125255000D01*
X125590000Y-123755000D02*
X125590000Y-120805000D01*
X113730000Y-120045000D02*
X113730000Y-126015000D01*
X114490000Y-123755000D02*
X114490000Y-120805000D01*
X124540000Y-125255000D02*
X124540000Y-126005000D01*
X126340000Y-123755000D02*
X125590000Y-123755000D01*
X126340000Y-125255000D02*
X124540000Y-125255000D01*
X113730000Y-126015000D02*
X126350000Y-126015000D01*
X113740000Y-126005000D02*
X115540000Y-126005000D01*
X123040000Y-126005000D02*
X123040000Y-125255000D01*
X126350000Y-120045000D02*
X113730000Y-120045000D01*
X123040000Y-125255000D02*
X117040000Y-125255000D01*
X124540000Y-126005000D02*
X126340000Y-126005000D01*
X113740000Y-125255000D02*
X113740000Y-126005000D01*
X126640000Y-126305000D02*
X126640000Y-125055000D01*
X125390000Y-126305000D02*
X126640000Y-126305000D01*
X125590000Y-120805000D02*
X120040000Y-120805000D01*
X117040000Y-126005000D02*
X123040000Y-126005000D01*
X126350000Y-126015000D02*
X126350000Y-120045000D01*
X117040000Y-125255000D02*
X117040000Y-126005000D01*
X113740000Y-123755000D02*
X114490000Y-123755000D01*
X114490000Y-120805000D02*
X120040000Y-120805000D01*
%TO.C,Q1*%
X117880000Y-74320000D02*
X117880000Y-70720000D01*
X113429999Y-72520000D02*
G75*
G03*
X117868478Y-74358478I2600001J0D01*
G01*
X117868478Y-70681522D02*
G75*
G03*
X113430000Y-72520000I-1838478J-1838478D01*
G01*
%TO.C,Q2*%
X133540000Y-74320000D02*
X133540000Y-70720000D01*
X129089999Y-72520000D02*
G75*
G03*
X133528478Y-74358478I2600001J0D01*
G01*
X133528478Y-70681522D02*
G75*
G03*
X129090000Y-72520000I-1838478J-1838478D01*
G01*
%TO.C,R9*%
X160450000Y-115300000D02*
X163190000Y-115300000D01*
X161820000Y-107990000D02*
X161820000Y-108760000D01*
X163190000Y-115300000D02*
X163190000Y-108760000D01*
X160450000Y-108760000D02*
X160450000Y-115300000D01*
X163190000Y-108760000D02*
X160450000Y-108760000D01*
X161820000Y-116070000D02*
X161820000Y-115300000D01*
%TO.C,U1*%
X166102500Y-92985000D02*
X166102500Y-91335000D01*
X166102500Y-96635000D02*
X166102500Y-94985000D01*
X130422500Y-91335000D02*
X130422500Y-96635000D01*
X166102500Y-91335000D02*
X130422500Y-91335000D01*
X130422500Y-96635000D02*
X166102500Y-96635000D01*
X166102500Y-92985000D02*
G75*
G03*
X166102500Y-94985000I0J-1000000D01*
G01*
%TO.C,R2*%
X122240000Y-79190000D02*
X122240000Y-72650000D01*
X119500000Y-79190000D02*
X122240000Y-79190000D01*
X122240000Y-72650000D02*
X119500000Y-72650000D01*
X120870000Y-79960000D02*
X120870000Y-79190000D01*
X120870000Y-71880000D02*
X120870000Y-72650000D01*
X119500000Y-72650000D02*
X119500000Y-79190000D01*
%TO.C,Q8*%
X122160000Y-113630000D02*
X122160000Y-117230000D01*
X122171522Y-117268478D02*
G75*
G03*
X126610000Y-115430000I1838478J1838478D01*
G01*
X126610001Y-115430000D02*
G75*
G03*
X122171522Y-113591522I-2600001J0D01*
G01*
%TO.C,R3*%
X140860000Y-79960000D02*
X140860000Y-79190000D01*
X140860000Y-71880000D02*
X140860000Y-72650000D01*
X142230000Y-72650000D02*
X139490000Y-72650000D01*
X142230000Y-79190000D02*
X142230000Y-72650000D01*
X139490000Y-79190000D02*
X142230000Y-79190000D01*
X139490000Y-72650000D02*
X139490000Y-79190000D01*
%TO.C,R1*%
X125200000Y-71880000D02*
X125200000Y-72650000D01*
X126570000Y-79190000D02*
X126570000Y-72650000D01*
X125200000Y-79960000D02*
X125200000Y-79190000D01*
X123830000Y-79190000D02*
X126570000Y-79190000D01*
X123830000Y-72650000D02*
X123830000Y-79190000D01*
X126570000Y-72650000D02*
X123830000Y-72650000D01*
%TO.C,J6*%
X171480000Y-61945000D02*
X171480000Y-62695000D01*
X163980000Y-61945000D02*
X163980000Y-62695000D01*
X173290000Y-67905000D02*
X173290000Y-61935000D01*
X173290000Y-61935000D02*
X160670000Y-61935000D01*
X163980000Y-62695000D02*
X169980000Y-62695000D01*
X161430000Y-64195000D02*
X161430000Y-67145000D01*
X162480000Y-62695000D02*
X162480000Y-61945000D01*
X160680000Y-64195000D02*
X161430000Y-64195000D01*
X160670000Y-67905000D02*
X173290000Y-67905000D01*
X172530000Y-64195000D02*
X172530000Y-67145000D01*
X173280000Y-64195000D02*
X172530000Y-64195000D01*
X161630000Y-61645000D02*
X160380000Y-61645000D01*
X173280000Y-61945000D02*
X171480000Y-61945000D01*
X171480000Y-62695000D02*
X173280000Y-62695000D01*
X160380000Y-61645000D02*
X160380000Y-62895000D01*
X169980000Y-61945000D02*
X163980000Y-61945000D01*
X160680000Y-61945000D02*
X160680000Y-62695000D01*
X173280000Y-62695000D02*
X173280000Y-61945000D01*
X169980000Y-62695000D02*
X169980000Y-61945000D01*
X160680000Y-62695000D02*
X162480000Y-62695000D01*
X172530000Y-67145000D02*
X166980000Y-67145000D01*
X161430000Y-67145000D02*
X166980000Y-67145000D01*
X160670000Y-61935000D02*
X160670000Y-67905000D01*
X162480000Y-61945000D02*
X160680000Y-61945000D01*
%TO.C,R10*%
X167520000Y-115300000D02*
X167520000Y-108760000D01*
X164780000Y-115300000D02*
X167520000Y-115300000D01*
X166150000Y-107990000D02*
X166150000Y-108760000D01*
X164780000Y-108760000D02*
X164780000Y-115300000D01*
X167520000Y-108760000D02*
X164780000Y-108760000D01*
X166150000Y-116070000D02*
X166150000Y-115300000D01*
%TO.C,J1*%
X175725000Y-86450000D02*
X175725000Y-87200000D01*
X172775000Y-100800000D02*
X172775000Y-94000000D01*
X177225000Y-101550000D02*
X177975000Y-101550000D01*
X177975000Y-86450000D02*
X177225000Y-86450000D01*
X177225000Y-89750000D02*
X177225000Y-98250000D01*
X177225000Y-88250000D02*
X177975000Y-88250000D01*
X177225000Y-86450000D02*
X177225000Y-88250000D01*
X177975000Y-98250000D02*
X177975000Y-89750000D01*
X177975000Y-88250000D02*
X177975000Y-86450000D01*
X172015000Y-86440000D02*
X172015000Y-101560000D01*
X177985000Y-86440000D02*
X172015000Y-86440000D01*
X178275000Y-86150000D02*
X177025000Y-86150000D01*
X177975000Y-101550000D02*
X177975000Y-99750000D01*
X175725000Y-87200000D02*
X172775000Y-87200000D01*
X175725000Y-101550000D02*
X175725000Y-100800000D01*
X178275000Y-87400000D02*
X178275000Y-86150000D01*
X177975000Y-99750000D02*
X177225000Y-99750000D01*
X177225000Y-98250000D02*
X177975000Y-98250000D01*
X172775000Y-87200000D02*
X172775000Y-94000000D01*
X177975000Y-89750000D02*
X177225000Y-89750000D01*
X177985000Y-101560000D02*
X177985000Y-86440000D01*
X175725000Y-100800000D02*
X172775000Y-100800000D01*
X177225000Y-99750000D02*
X177225000Y-101550000D01*
X172015000Y-101560000D02*
X177985000Y-101560000D01*
%TO.C,J3*%
X117000000Y-61945000D02*
X117000000Y-62695000D01*
X123000000Y-61945000D02*
X117000000Y-61945000D01*
X124500000Y-61945000D02*
X124500000Y-62695000D01*
X126300000Y-64195000D02*
X125550000Y-64195000D01*
X125550000Y-64195000D02*
X125550000Y-67145000D01*
X114650000Y-61645000D02*
X113400000Y-61645000D01*
X113400000Y-61645000D02*
X113400000Y-62895000D01*
X125550000Y-67145000D02*
X120000000Y-67145000D01*
X126300000Y-61945000D02*
X124500000Y-61945000D01*
X113690000Y-67905000D02*
X126310000Y-67905000D01*
X123000000Y-62695000D02*
X123000000Y-61945000D01*
X113700000Y-62695000D02*
X115500000Y-62695000D01*
X126310000Y-61935000D02*
X113690000Y-61935000D01*
X115500000Y-62695000D02*
X115500000Y-61945000D01*
X117000000Y-62695000D02*
X123000000Y-62695000D01*
X126300000Y-62695000D02*
X126300000Y-61945000D01*
X115500000Y-61945000D02*
X113700000Y-61945000D01*
X113700000Y-64195000D02*
X114450000Y-64195000D01*
X124500000Y-62695000D02*
X126300000Y-62695000D01*
X113690000Y-61935000D02*
X113690000Y-67905000D01*
X113700000Y-61945000D02*
X113700000Y-62695000D01*
X114450000Y-67145000D02*
X120000000Y-67145000D01*
X114450000Y-64195000D02*
X114450000Y-67145000D01*
X126310000Y-67905000D02*
X126310000Y-61935000D01*
%TO.C,R15*%
X114840000Y-107990000D02*
X114840000Y-108760000D01*
X113470000Y-115300000D02*
X116210000Y-115300000D01*
X116210000Y-108760000D02*
X113470000Y-108760000D01*
X114840000Y-116070000D02*
X114840000Y-115300000D01*
X116210000Y-115300000D02*
X116210000Y-108760000D01*
X113470000Y-108760000D02*
X113470000Y-115300000D01*
%TO.C,A2*%
X125850000Y-88025000D02*
X125850000Y-90025000D01*
X125850000Y-90025000D02*
X121750000Y-90025000D01*
X121750000Y-88025000D02*
X125850000Y-88025000D01*
X121750000Y-90025000D02*
X121750000Y-88025000D01*
%TO.C,J7*%
X161470000Y-120805000D02*
X167020000Y-120805000D01*
X162520000Y-126005000D02*
X162520000Y-125255000D01*
X161470000Y-123755000D02*
X161470000Y-120805000D01*
X162520000Y-125255000D02*
X160720000Y-125255000D01*
X160720000Y-126005000D02*
X162520000Y-126005000D01*
X160720000Y-125255000D02*
X160720000Y-126005000D01*
X164020000Y-125255000D02*
X164020000Y-126005000D01*
X171520000Y-125255000D02*
X171520000Y-126005000D01*
X173320000Y-126005000D02*
X173320000Y-125255000D01*
X172370000Y-126305000D02*
X173620000Y-126305000D01*
X173320000Y-123755000D02*
X172570000Y-123755000D01*
X173620000Y-126305000D02*
X173620000Y-125055000D01*
X160710000Y-120045000D02*
X160710000Y-126015000D01*
X170020000Y-126005000D02*
X170020000Y-125255000D01*
X173330000Y-126015000D02*
X173330000Y-120045000D01*
X164020000Y-126005000D02*
X170020000Y-126005000D01*
X173330000Y-120045000D02*
X160710000Y-120045000D01*
X172570000Y-123755000D02*
X172570000Y-120805000D01*
X160720000Y-123755000D02*
X161470000Y-123755000D01*
X171520000Y-126005000D02*
X173320000Y-126005000D01*
X160710000Y-126015000D02*
X173330000Y-126015000D01*
X173320000Y-125255000D02*
X171520000Y-125255000D01*
X172570000Y-120805000D02*
X167020000Y-120805000D01*
X170020000Y-125255000D02*
X164020000Y-125255000D01*
%TO.C,R5*%
X157890000Y-79190000D02*
X157890000Y-72650000D01*
X157890000Y-72650000D02*
X155150000Y-72650000D01*
X156520000Y-79960000D02*
X156520000Y-79190000D01*
X155150000Y-79190000D02*
X157890000Y-79190000D01*
X156520000Y-71880000D02*
X156520000Y-72650000D01*
X155150000Y-72650000D02*
X155150000Y-79190000D01*
%TO.C,R14*%
X136200000Y-108760000D02*
X133460000Y-108760000D01*
X134830000Y-116070000D02*
X134830000Y-115300000D01*
X133460000Y-108760000D02*
X133460000Y-115300000D01*
X136200000Y-115300000D02*
X136200000Y-108760000D01*
X133460000Y-115300000D02*
X136200000Y-115300000D01*
X134830000Y-107990000D02*
X134830000Y-108760000D01*
%TD*%
M02*
