M48
; DRILL file {KiCad (6.0.10-0)} date Sunday, February 19, 2023 at 12:01:53 AM
; FORMAT={-:-/ absolute / inch / decimal}
; #@! TF.CreationDate,2023-02-19T00:01:53-07:00
; #@! TF.GenerationSoftware,Kicad,Pcbnew,(6.0.10-0)
; #@! TF.FileFunction,Plated,1,2,PTH
FMAT,2
INCH
; #@! TA.AperFunction,Plated,PTH,ViaDrill
T1C0.0157
; #@! TA.AperFunction,Plated,PTH,ComponentDrill
T2C0.0295
; #@! TA.AperFunction,Plated,PTH,ComponentDrill
T3C0.0315
; #@! TA.AperFunction,Plated,PTH,ComponentDrill
T4C0.0374
%
G90
G05
T1
X4.2913Y-3.6998
X4.3307Y-3.6998
X4.3701Y-3.6998
X4.6457Y-4.0945
X4.7244Y-2.2835
X4.7244Y-2.3228
X4.7244Y-2.3622
X4.7244Y-4.0945
X4.726Y-5.0394
X4.726Y-5.0787
X4.726Y-5.1181
X4.8819Y-3.4252
X4.8819Y-3.622
X4.8819Y-3.8189
X5.3409Y-2.2835
X5.3409Y-2.3228
X5.3409Y-2.3622
X5.3419Y-5.0394
X5.3419Y-5.0787
X5.3419Y-5.1181
X5.6693Y-2.2835
X5.6693Y-3.3858
X5.9575Y-2.2835
X5.9575Y-2.3228
X5.9575Y-2.3622
X5.9591Y-5.0394
X5.9591Y-5.0787
X5.9591Y-5.1181
X6.574Y-2.2835
X6.574Y-2.3228
X6.574Y-2.3622
X6.5756Y-5.0394
X6.5756Y-5.0787
X6.5756Y-5.1181
X7.0866Y-3.7008
X7.126Y-3.7008
X7.1654Y-3.7008
T2
X4.5681Y-2.8051
X4.5681Y-2.8551
X4.5681Y-2.9051
X4.8823Y-4.4945
X4.8823Y-4.5445
X4.8823Y-4.5945
X5.1846Y-2.8051
X5.1846Y-2.8551
X5.1846Y-2.9051
X5.4994Y-4.4945
X5.4994Y-4.5445
X5.4994Y-4.5945
X5.8012Y-2.8051
X5.8012Y-2.8551
X5.8012Y-2.9051
X6.1154Y-4.4945
X6.1154Y-4.5445
X6.1154Y-4.5945
X6.4177Y-2.8051
X6.4177Y-2.8551
X6.4177Y-2.9051
X6.7319Y-4.4945
X6.7319Y-4.5445
X6.7319Y-4.5945
T3
X4.5213Y-4.2106
X4.5213Y-4.6106
X4.6917Y-4.2106
X4.6917Y-4.6106
X4.7587Y-2.789
X4.7587Y-3.189
X4.9291Y-2.789
X4.9291Y-3.189
X5.1372Y-4.2106
X5.1372Y-4.6106
X5.1871Y-3.5502
X5.1871Y-3.8502
X5.2871Y-3.5502
X5.2871Y-3.8502
X5.3083Y-4.2106
X5.3083Y-4.6106
X5.3752Y-2.789
X5.3752Y-3.189
X5.3871Y-3.5502
X5.3871Y-3.8502
X5.4871Y-3.5502
X5.4871Y-3.8502
X5.5457Y-2.789
X5.5457Y-3.189
X5.5871Y-3.5502
X5.5871Y-3.8502
X5.6871Y-3.5502
X5.6871Y-3.8502
X5.7543Y-4.2106
X5.7543Y-4.6106
X5.7871Y-3.5502
X5.7871Y-3.8502
X5.8871Y-3.5502
X5.8871Y-3.8502
X5.9248Y-4.2106
X5.9248Y-4.6106
X5.9871Y-3.5502
X5.9871Y-3.8502
X5.9917Y-2.789
X5.9917Y-3.189
X6.0871Y-3.5502
X6.0871Y-3.8502
X6.1622Y-2.789
X6.1622Y-3.189
X6.1871Y-3.5502
X6.1871Y-3.8502
X6.2871Y-3.5502
X6.2871Y-3.8502
X6.3709Y-4.2106
X6.3709Y-4.6106
X6.3871Y-3.5502
X6.3871Y-3.8502
X6.4871Y-3.5502
X6.4871Y-3.8502
X6.5413Y-4.2106
X6.5413Y-4.6106
X6.6083Y-2.789
X6.6083Y-3.189
X6.7787Y-2.789
X6.7787Y-3.189
T4
X4.5463Y-3.503
X4.5463Y-3.6014
X4.5463Y-3.6998
X4.5463Y-3.7982
X4.5463Y-3.8967
X4.5768Y-2.5352
X4.5783Y-4.8644
X4.6752Y-2.5352
X4.6768Y-4.8644
X4.7736Y-2.5352
X4.7752Y-4.8644
X4.872Y-2.5352
X4.8736Y-4.8644
X5.1933Y-2.5352
X5.1943Y-4.8644
X5.2917Y-2.5352
X5.2927Y-4.8644
X5.3902Y-2.5352
X5.3911Y-4.8644
X5.4886Y-2.5352
X5.4896Y-4.8644
X5.8098Y-2.5352
X5.8114Y-4.8644
X5.9083Y-2.5352
X5.9098Y-4.8644
X6.0067Y-2.5352
X6.0083Y-4.8644
X6.1051Y-2.5352
X6.1067Y-4.8644
X6.4264Y-2.5352
X6.428Y-4.8644
X6.5248Y-2.5352
X6.5264Y-4.8644
X6.6232Y-2.5352
X6.6248Y-4.8644
X6.7217Y-2.5352
X6.7232Y-4.8644
X6.9104Y-3.5039
X6.9104Y-3.6024
X6.9104Y-3.7008
X6.9104Y-3.7992
X6.9104Y-3.8976
T0
M30
