%TF.GenerationSoftware,KiCad,Pcbnew,(6.0.10-0)*%
%TF.CreationDate,2023-02-19T00:01:58-07:00*%
%TF.ProjectId,andyvision_kicad,616e6479-7669-4736-996f-6e5f6b696361,1.0*%
%TF.SameCoordinates,Original*%
%TF.FileFunction,Copper,L1,Top*%
%TF.FilePolarity,Positive*%
%FSLAX46Y46*%
G04 Gerber Fmt 4.6, Leading zero omitted, Abs format (unit mm)*
G04 Created by KiCad (PCBNEW (6.0.10-0)) date 2023-02-19 00:01:58*
%MOMM*%
%LPD*%
G01*
G04 APERTURE LIST*
G04 Aperture macros list*
%AMRoundRect*
0 Rectangle with rounded corners*
0 $1 Rounding radius*
0 $2 $3 $4 $5 $6 $7 $8 $9 X,Y pos of 4 corners*
0 Add a 4 corners polygon primitive as box body*
4,1,4,$2,$3,$4,$5,$6,$7,$8,$9,$2,$3,0*
0 Add four circle primitives for the rounded corners*
1,1,$1+$1,$2,$3*
1,1,$1+$1,$4,$5*
1,1,$1+$1,$6,$7*
1,1,$1+$1,$8,$9*
0 Add four rect primitives between the rounded corners*
20,1,$1+$1,$2,$3,$4,$5,0*
20,1,$1+$1,$4,$5,$6,$7,0*
20,1,$1+$1,$6,$7,$8,$9,0*
20,1,$1+$1,$8,$9,$2,$3,0*%
G04 Aperture macros list end*
%TA.AperFunction,ComponentPad*%
%ADD10C,1.600000*%
%TD*%
%TA.AperFunction,ComponentPad*%
%ADD11O,1.600000X1.600000*%
%TD*%
%TA.AperFunction,ComponentPad*%
%ADD12RoundRect,0.250000X0.725000X-0.600000X0.725000X0.600000X-0.725000X0.600000X-0.725000X-0.600000X0*%
%TD*%
%TA.AperFunction,ComponentPad*%
%ADD13O,1.950000X1.700000*%
%TD*%
%TA.AperFunction,ComponentPad*%
%ADD14RoundRect,0.250000X0.600000X0.725000X-0.600000X0.725000X-0.600000X-0.725000X0.600000X-0.725000X0*%
%TD*%
%TA.AperFunction,ComponentPad*%
%ADD15O,1.700000X1.950000*%
%TD*%
%TA.AperFunction,ComponentPad*%
%ADD16R,1.500000X1.050000*%
%TD*%
%TA.AperFunction,ComponentPad*%
%ADD17O,1.500000X1.050000*%
%TD*%
%TA.AperFunction,SMDPad,CuDef*%
%ADD18R,1.000000X1.500000*%
%TD*%
%TA.AperFunction,ComponentPad*%
%ADD19RoundRect,0.250000X-0.600000X-0.725000X0.600000X-0.725000X0.600000X0.725000X-0.600000X0.725000X0*%
%TD*%
%TA.AperFunction,ComponentPad*%
%ADD20R,1.600000X1.600000*%
%TD*%
%TA.AperFunction,ComponentPad*%
%ADD21RoundRect,0.250000X-0.725000X0.600000X-0.725000X-0.600000X0.725000X-0.600000X0.725000X0.600000X0*%
%TD*%
%TA.AperFunction,ViaPad*%
%ADD22C,0.800000*%
%TD*%
%TA.AperFunction,Conductor*%
%ADD23C,0.250000*%
%TD*%
%TA.AperFunction,Conductor*%
%ADD24C,0.200000*%
%TD*%
G04 APERTURE END LIST*
D10*
%TO.P,R12,1*%
%TO.N,Net-(Q6-Pad2)*%
X150490000Y-117110000D03*
D11*
%TO.P,R12,2*%
%TO.N,/daisy/JPB15/DIG OUT*%
X150490000Y-106950000D03*
%TD*%
D10*
%TO.P,R16,1*%
%TO.N,Net-(Q8-Pad2)*%
X119170000Y-117110000D03*
D11*
%TO.P,R16,2*%
%TO.N,/daisy/JPB16/DIG OUT*%
X119170000Y-106950000D03*
%TD*%
D10*
%TO.P,R6,1*%
%TO.N,Net-(Q3-Pad2)*%
X152190000Y-70840000D03*
D11*
%TO.P,R6,2*%
%TO.N,/daisy/JPB12/DIG OUT*%
X152190000Y-81000000D03*
%TD*%
D10*
%TO.P,R11,1*%
%TO.N,GND*%
X146160000Y-106950000D03*
D11*
%TO.P,R11,2*%
%TO.N,/daisy/JPB15/DIG IN*%
X146160000Y-117110000D03*
%TD*%
D12*
%TO.P,J2,1,Pin_1*%
%TO.N,GND*%
X115475000Y-98975000D03*
D13*
%TO.P,J2,2,Pin_2*%
%TO.N,+12V*%
X115475000Y-96475000D03*
%TO.P,J2,3,Pin_3*%
%TO.N,+5V*%
X115475000Y-93975000D03*
%TO.P,J2,4,Pin_4*%
%TO.N,/daisy/SCL*%
X115475000Y-91475000D03*
%TO.P,J2,5,Pin_5*%
%TO.N,/daisy/SDA*%
X115475000Y-88975000D03*
%TD*%
D14*
%TO.P,J9,1,Pin_1*%
%TO.N,Net-(J9-Pad1)*%
X139435000Y-123555000D03*
D15*
%TO.P,J9,2,Pin_2*%
%TO.N,/daisy/JPB13/DIG IN*%
X136935000Y-123555000D03*
%TO.P,J9,3,Pin_3*%
%TO.N,+5V*%
X134435000Y-123555000D03*
%TO.P,J9,4,Pin_4*%
%TO.N,+12V*%
X131935000Y-123555000D03*
%TD*%
D10*
%TO.P,R13,1*%
%TO.N,GND*%
X130485000Y-106950000D03*
D11*
%TO.P,R13,2*%
%TO.N,/daisy/JPB13/DIG IN*%
X130485000Y-117110000D03*
%TD*%
D16*
%TO.P,Q4,1,E*%
%TO.N,GND*%
X163010000Y-73790000D03*
D17*
%TO.P,Q4,2,B*%
%TO.N,Net-(Q4-Pad2)*%
X163010000Y-72520000D03*
%TO.P,Q4,3,C*%
%TO.N,Net-(J6-Pad1)*%
X163010000Y-71250000D03*
%TD*%
D18*
%TO.P,A0,1,A*%
%TO.N,GND*%
X125300000Y-99025000D03*
%TO.P,A0,2,C*%
%TO.N,Net-(JP3-Pad2)*%
X124000000Y-99025000D03*
%TO.P,A0,3,B*%
%TO.N,+5V*%
X122700000Y-99025000D03*
%TD*%
D19*
%TO.P,J4,1,Pin_1*%
%TO.N,Net-(J4-Pad1)*%
X131910000Y-64395000D03*
D15*
%TO.P,J4,2,Pin_2*%
%TO.N,/daisy/JPB10/DIG IN*%
X134410000Y-64395000D03*
%TO.P,J4,3,Pin_3*%
%TO.N,+5V*%
X136910000Y-64395000D03*
%TO.P,J4,4,Pin_4*%
%TO.N,+12V*%
X139410000Y-64395000D03*
%TD*%
D18*
%TO.P,A1,1,A*%
%TO.N,GND*%
X125300000Y-94025000D03*
%TO.P,A1,2,C*%
%TO.N,Net-(JP2-Pad2)*%
X124000000Y-94025000D03*
%TO.P,A1,3,B*%
%TO.N,+5V*%
X122700000Y-94025000D03*
%TD*%
D10*
%TO.P,R4,1*%
%TO.N,Net-(Q2-Pad2)*%
X136530000Y-70840000D03*
D11*
%TO.P,R4,2*%
%TO.N,/daisy/JPB10/DIG OUT*%
X136530000Y-81000000D03*
%TD*%
D16*
%TO.P,Q7,1,E*%
%TO.N,GND*%
X139685000Y-114160000D03*
D17*
%TO.P,Q7,2,B*%
%TO.N,Net-(Q7-Pad2)*%
X139685000Y-115430000D03*
%TO.P,Q7,3,C*%
%TO.N,Net-(J9-Pad1)*%
X139685000Y-116700000D03*
%TD*%
D10*
%TO.P,R8,1*%
%TO.N,Net-(Q4-Pad2)*%
X167850000Y-70840000D03*
D11*
%TO.P,R8,2*%
%TO.N,/daisy/JPB11/DIG OUT*%
X167850000Y-81000000D03*
%TD*%
D16*
%TO.P,Q6,1,E*%
%TO.N,GND*%
X155330000Y-114160000D03*
D17*
%TO.P,Q6,2,B*%
%TO.N,Net-(Q6-Pad2)*%
X155330000Y-115430000D03*
%TO.P,Q6,3,C*%
%TO.N,Net-(J8-Pad1)*%
X155330000Y-116700000D03*
%TD*%
D10*
%TO.P,R7,1*%
%TO.N,GND*%
X172180000Y-81000000D03*
D11*
%TO.P,R7,2*%
%TO.N,/daisy/JPB11/DIG IN*%
X172180000Y-70840000D03*
%TD*%
D16*
%TO.P,Q3,1,E*%
%TO.N,GND*%
X147350000Y-73790000D03*
D17*
%TO.P,Q3,2,B*%
%TO.N,Net-(Q3-Pad2)*%
X147350000Y-72520000D03*
%TO.P,Q3,3,C*%
%TO.N,Net-(J5-Pad1)*%
X147350000Y-71250000D03*
%TD*%
D16*
%TO.P,Q5,1,E*%
%TO.N,GND*%
X170990000Y-114160000D03*
D17*
%TO.P,Q5,2,B*%
%TO.N,Net-(Q5-Pad2)*%
X170990000Y-115430000D03*
%TO.P,Q5,3,C*%
%TO.N,Net-(J7-Pad1)*%
X170990000Y-116700000D03*
%TD*%
D14*
%TO.P,J8,1,Pin_1*%
%TO.N,Net-(J8-Pad1)*%
X155110000Y-123555000D03*
D15*
%TO.P,J8,2,Pin_2*%
%TO.N,/daisy/JPB15/DIG IN*%
X152610000Y-123555000D03*
%TO.P,J8,3,Pin_3*%
%TO.N,+5V*%
X150110000Y-123555000D03*
%TO.P,J8,4,Pin_4*%
%TO.N,+12V*%
X147610000Y-123555000D03*
%TD*%
D19*
%TO.P,J5,1,Pin_1*%
%TO.N,Net-(J5-Pad1)*%
X147570000Y-64395000D03*
D15*
%TO.P,J5,2,Pin_2*%
%TO.N,/daisy/JPB12/DIG IN*%
X150070000Y-64395000D03*
%TO.P,J5,3,Pin_3*%
%TO.N,+5V*%
X152570000Y-64395000D03*
%TO.P,J5,4,Pin_4*%
%TO.N,+12V*%
X155070000Y-64395000D03*
%TD*%
D14*
%TO.P,J10,1,Pin_1*%
%TO.N,Net-(J10-Pad1)*%
X123790000Y-123555000D03*
D15*
%TO.P,J10,2,Pin_2*%
%TO.N,/daisy/JPB16/DIG IN*%
X121290000Y-123555000D03*
%TO.P,J10,3,Pin_3*%
%TO.N,+5V*%
X118790000Y-123555000D03*
%TO.P,J10,4,Pin_4*%
%TO.N,+12V*%
X116290000Y-123555000D03*
%TD*%
D16*
%TO.P,Q1,1,E*%
%TO.N,GND*%
X116030000Y-73790000D03*
D17*
%TO.P,Q1,2,B*%
%TO.N,Net-(Q1-Pad2)*%
X116030000Y-72520000D03*
%TO.P,Q1,3,C*%
%TO.N,Net-(J3-Pad1)*%
X116030000Y-71250000D03*
%TD*%
D16*
%TO.P,Q2,1,E*%
%TO.N,GND*%
X131690000Y-73790000D03*
D17*
%TO.P,Q2,2,B*%
%TO.N,Net-(Q2-Pad2)*%
X131690000Y-72520000D03*
%TO.P,Q2,3,C*%
%TO.N,Net-(J4-Pad1)*%
X131690000Y-71250000D03*
%TD*%
D10*
%TO.P,R9,1*%
%TO.N,GND*%
X161820000Y-106950000D03*
D11*
%TO.P,R9,2*%
%TO.N,/daisy/JPB14/DIG IN*%
X161820000Y-117110000D03*
%TD*%
D20*
%TO.P,U1,1,GPB0*%
%TO.N,/daisy/JPB16/DIG IN*%
X164772500Y-90175000D03*
D11*
%TO.P,U1,2,GPB1*%
%TO.N,/daisy/JPB13/DIG IN*%
X162232500Y-90175000D03*
%TO.P,U1,3,GPB2*%
%TO.N,/daisy/JPB15/DIG IN*%
X159692500Y-90175000D03*
%TO.P,U1,4,GPB3*%
%TO.N,/daisy/JPB14/DIG IN*%
X157152500Y-90175000D03*
%TO.P,U1,5,GPB4*%
%TO.N,/daisy/JPB11/DIG IN*%
X154612500Y-90175000D03*
%TO.P,U1,6,GPB5*%
%TO.N,/daisy/JPB12/DIG IN*%
X152072500Y-90175000D03*
%TO.P,U1,7,GPB6*%
%TO.N,/daisy/JPB10/DIG IN*%
X149532500Y-90175000D03*
%TO.P,U1,8,GPB7*%
%TO.N,/daisy/JPB9/DIG IN*%
X146992500Y-90175000D03*
%TO.P,U1,9,VDD*%
%TO.N,+5V*%
X144452500Y-90175000D03*
%TO.P,U1,10,VSS*%
%TO.N,GND*%
X141912500Y-90175000D03*
%TO.P,U1,11,NC*%
%TO.N,unconnected-(U1-Pad11)*%
X139372500Y-90175000D03*
%TO.P,U1,12,SCK*%
%TO.N,/daisy/SCL*%
X136832500Y-90175000D03*
%TO.P,U1,13,SDA*%
%TO.N,/daisy/SDA*%
X134292500Y-90175000D03*
%TO.P,U1,14,NC*%
%TO.N,unconnected-(U1-Pad14)*%
X131752500Y-90175000D03*
%TO.P,U1,15,A0*%
%TO.N,Net-(JP3-Pad2)*%
X131752500Y-97795000D03*
%TO.P,U1,16,A1*%
%TO.N,Net-(JP2-Pad2)*%
X134292500Y-97795000D03*
%TO.P,U1,17,A2*%
%TO.N,Net-(JP1-Pad2)*%
X136832500Y-97795000D03*
%TO.P,U1,18,~{RESET}*%
%TO.N,+5V*%
X139372500Y-97795000D03*
%TO.P,U1,19,INTB*%
%TO.N,unconnected-(U1-Pad19)*%
X141912500Y-97795000D03*
%TO.P,U1,20,INTA*%
%TO.N,unconnected-(U1-Pad20)*%
X144452500Y-97795000D03*
%TO.P,U1,21,GPA0*%
%TO.N,/daisy/JPB16/DIG OUT*%
X146992500Y-97795000D03*
%TO.P,U1,22,GPA1*%
%TO.N,/daisy/JPB13/DIG OUT*%
X149532500Y-97795000D03*
%TO.P,U1,23,GPA2*%
%TO.N,/daisy/JPB15/DIG OUT*%
X152072500Y-97795000D03*
%TO.P,U1,24,GPA3*%
%TO.N,/daisy/JPB14/DIG OUT*%
X154612500Y-97795000D03*
%TO.P,U1,25,GPA4*%
%TO.N,/daisy/JPB11/DIG OUT*%
X157152500Y-97795000D03*
%TO.P,U1,26,GPA5*%
%TO.N,/daisy/JPB12/DIG OUT*%
X159692500Y-97795000D03*
%TO.P,U1,27,GPA6*%
%TO.N,/daisy/JPB10/DIG OUT*%
X162232500Y-97795000D03*
%TO.P,U1,28,GPA7*%
%TO.N,/daisy/JPB9/DIG OUT*%
X164772500Y-97795000D03*
%TD*%
D10*
%TO.P,R2,1*%
%TO.N,Net-(Q1-Pad2)*%
X120870000Y-70840000D03*
D11*
%TO.P,R2,2*%
%TO.N,/daisy/JPB9/DIG OUT*%
X120870000Y-81000000D03*
%TD*%
D16*
%TO.P,Q8,1,E*%
%TO.N,GND*%
X124010000Y-114160000D03*
D17*
%TO.P,Q8,2,B*%
%TO.N,Net-(Q8-Pad2)*%
X124010000Y-115430000D03*
%TO.P,Q8,3,C*%
%TO.N,Net-(J10-Pad1)*%
X124010000Y-116700000D03*
%TD*%
D10*
%TO.P,R3,1*%
%TO.N,GND*%
X140860000Y-81000000D03*
D11*
%TO.P,R3,2*%
%TO.N,/daisy/JPB10/DIG IN*%
X140860000Y-70840000D03*
%TD*%
D10*
%TO.P,R1,1*%
%TO.N,GND*%
X125200000Y-81000000D03*
D11*
%TO.P,R1,2*%
%TO.N,/daisy/JPB9/DIG IN*%
X125200000Y-70840000D03*
%TD*%
D19*
%TO.P,J6,1,Pin_1*%
%TO.N,Net-(J6-Pad1)*%
X163230000Y-64395000D03*
D15*
%TO.P,J6,2,Pin_2*%
%TO.N,/daisy/JPB11/DIG IN*%
X165730000Y-64395000D03*
%TO.P,J6,3,Pin_3*%
%TO.N,+5V*%
X168230000Y-64395000D03*
%TO.P,J6,4,Pin_4*%
%TO.N,+12V*%
X170730000Y-64395000D03*
%TD*%
D10*
%TO.P,R10,1*%
%TO.N,Net-(Q5-Pad2)*%
X166150000Y-117110000D03*
D11*
%TO.P,R10,2*%
%TO.N,/daisy/JPB14/DIG OUT*%
X166150000Y-106950000D03*
%TD*%
D21*
%TO.P,J1,1,Pin_1*%
%TO.N,GND*%
X175525000Y-89000000D03*
D13*
%TO.P,J1,2,Pin_2*%
%TO.N,+12V*%
X175525000Y-91500000D03*
%TO.P,J1,3,Pin_3*%
%TO.N,+5V*%
X175525000Y-94000000D03*
%TO.P,J1,4,Pin_4*%
%TO.N,/daisy/SCL*%
X175525000Y-96500000D03*
%TO.P,J1,5,Pin_5*%
%TO.N,/daisy/SDA*%
X175525000Y-99000000D03*
%TD*%
D19*
%TO.P,J3,1,Pin_1*%
%TO.N,Net-(J3-Pad1)*%
X116250000Y-64395000D03*
D15*
%TO.P,J3,2,Pin_2*%
%TO.N,/daisy/JPB9/DIG IN*%
X118750000Y-64395000D03*
%TO.P,J3,3,Pin_3*%
%TO.N,+5V*%
X121250000Y-64395000D03*
%TO.P,J3,4,Pin_4*%
%TO.N,+12V*%
X123750000Y-64395000D03*
%TD*%
D10*
%TO.P,R15,1*%
%TO.N,GND*%
X114840000Y-106950000D03*
D11*
%TO.P,R15,2*%
%TO.N,/daisy/JPB16/DIG IN*%
X114840000Y-117110000D03*
%TD*%
D18*
%TO.P,A2,1,A*%
%TO.N,GND*%
X125100000Y-89025000D03*
%TO.P,A2,2,C*%
%TO.N,Net-(JP1-Pad2)*%
X123800000Y-89025000D03*
%TO.P,A2,3,B*%
%TO.N,+5V*%
X122500000Y-89025000D03*
%TD*%
D14*
%TO.P,J7,1,Pin_1*%
%TO.N,Net-(J7-Pad1)*%
X170770000Y-123555000D03*
D15*
%TO.P,J7,2,Pin_2*%
%TO.N,/daisy/JPB14/DIG IN*%
X168270000Y-123555000D03*
%TO.P,J7,3,Pin_3*%
%TO.N,+5V*%
X165770000Y-123555000D03*
%TO.P,J7,4,Pin_4*%
%TO.N,+12V*%
X163270000Y-123555000D03*
%TD*%
D10*
%TO.P,R5,1*%
%TO.N,GND*%
X156520000Y-81000000D03*
D11*
%TO.P,R5,2*%
%TO.N,/daisy/JPB12/DIG IN*%
X156520000Y-70840000D03*
%TD*%
D10*
%TO.P,R14,1*%
%TO.N,Net-(Q7-Pad2)*%
X134830000Y-117110000D03*
D11*
%TO.P,R14,2*%
%TO.N,/daisy/JPB13/DIG OUT*%
X134830000Y-106950000D03*
%TD*%
D22*
%TO.N,GND*%
X166980000Y-60000000D03*
X180000000Y-94000000D03*
X135660000Y-60000000D03*
X111000000Y-93975000D03*
X151320000Y-60000000D03*
X120040000Y-128000000D03*
X167020000Y-128000000D03*
X120000000Y-60000000D03*
X151360000Y-128000000D03*
X135685000Y-128000000D03*
%TO.N,+5V*%
X109000000Y-93975000D03*
X166980000Y-58000000D03*
X135685000Y-130000000D03*
X135660000Y-58000000D03*
X120000000Y-58000000D03*
X182000000Y-94000000D03*
X120040000Y-130000000D03*
X151320000Y-58000000D03*
X167020000Y-130000000D03*
X151360000Y-130000000D03*
X144000000Y-86000000D03*
X144000000Y-58000000D03*
%TO.N,+12V*%
X135660000Y-59000000D03*
X167020000Y-129000000D03*
X181000000Y-94000000D03*
X151320000Y-59000000D03*
X120040000Y-129000000D03*
X110000000Y-93975000D03*
X151360000Y-129000000D03*
X135685000Y-129000000D03*
X120000000Y-59000000D03*
X166980000Y-59000000D03*
%TO.N,Net-(JP1-Pad2)*%
X124000000Y-87000000D03*
%TO.N,Net-(JP2-Pad2)*%
X124000000Y-92000000D03*
%TO.N,/daisy/SCL*%
X118000000Y-104000000D03*
%TO.N,/daisy/SDA*%
X120000000Y-104000000D03*
%TO.N,Net-(JP3-Pad2)*%
X124000000Y-97000000D03*
%TD*%
D23*
%TO.N,GND*%
X125100000Y-89025000D02*
X128975000Y-89025000D01*
X125100000Y-89025000D02*
X125100000Y-93825000D01*
D24*
X151320000Y-60000000D02*
X166980000Y-60000000D01*
D23*
X180000000Y-94000000D02*
X180000000Y-128000000D01*
X141000000Y-92000000D02*
X141912500Y-91087500D01*
X151360000Y-128000000D02*
X167020000Y-128000000D01*
X141912500Y-91087500D02*
X141912500Y-90175000D01*
X180000000Y-128000000D02*
X167020000Y-128000000D01*
X129000000Y-92000000D02*
X141000000Y-92000000D01*
X120040000Y-128000000D02*
X111000000Y-128000000D01*
X125100000Y-93825000D02*
X125300000Y-94025000D01*
X128975000Y-89025000D02*
X129000000Y-89000000D01*
D24*
X125300000Y-101700000D02*
X125300000Y-99025000D01*
D23*
X125300000Y-94025000D02*
X125300000Y-99025000D01*
X120040000Y-128000000D02*
X135685000Y-128000000D01*
X120000000Y-60000000D02*
X135660000Y-60000000D01*
D24*
X125000000Y-102000000D02*
X125300000Y-101700000D01*
D23*
X120000000Y-60000000D02*
X111000000Y-60000000D01*
D24*
X115475000Y-98975000D02*
X115475000Y-101475000D01*
X115475000Y-101475000D02*
X116000000Y-102000000D01*
X111000000Y-60000000D02*
X111000000Y-128000000D01*
D23*
X135685000Y-128000000D02*
X151360000Y-128000000D01*
X180000000Y-94000000D02*
X180000000Y-60000000D01*
D24*
X166980000Y-60000000D02*
X180000000Y-60000000D01*
D23*
X129000000Y-89000000D02*
X129000000Y-92000000D01*
D24*
X116000000Y-102000000D02*
X125000000Y-102000000D01*
D23*
X135660000Y-60000000D02*
X151320000Y-60000000D01*
D24*
%TO.N,+5V*%
X122700000Y-94025000D02*
X122700000Y-89225000D01*
D23*
X144452500Y-92715000D02*
X139372500Y-97795000D01*
X122700000Y-99025000D02*
X122700000Y-94025000D01*
X144000000Y-58000000D02*
X151320000Y-58000000D01*
D24*
X115475000Y-93975000D02*
X122650000Y-93975000D01*
D23*
X120000000Y-58000000D02*
X109000000Y-58000000D01*
X144452500Y-86452500D02*
X144000000Y-86000000D01*
D24*
X151360000Y-130000000D02*
X167020000Y-130000000D01*
X151320000Y-58000000D02*
X166980000Y-58000000D01*
X135685000Y-130000000D02*
X151360000Y-130000000D01*
X120040000Y-130000000D02*
X109000000Y-130000000D01*
X120040000Y-130000000D02*
X135685000Y-130000000D01*
X122700000Y-89225000D02*
X122500000Y-89025000D01*
X122650000Y-93975000D02*
X122700000Y-94025000D01*
X166980000Y-58000000D02*
X182000000Y-58000000D01*
D23*
X135660000Y-58000000D02*
X144000000Y-58000000D01*
X182000000Y-130000000D02*
X167020000Y-130000000D01*
D24*
X109000000Y-58000000D02*
X109000000Y-130000000D01*
D23*
X182000000Y-94000000D02*
X182000000Y-58000000D01*
X120000000Y-58000000D02*
X135660000Y-58000000D01*
X144452500Y-90175000D02*
X144452500Y-86452500D01*
X144452500Y-90175000D02*
X144452500Y-92715000D01*
X182000000Y-94000000D02*
X182000000Y-130000000D01*
%TO.N,+12V*%
X120040000Y-129000000D02*
X135685000Y-129000000D01*
D24*
X151320000Y-59000000D02*
X166980000Y-59000000D01*
X110000000Y-129000000D02*
X110000000Y-59000000D01*
D23*
X120000000Y-59000000D02*
X110000000Y-59000000D01*
D24*
X135660000Y-59000000D02*
X151320000Y-59000000D01*
D23*
X181000000Y-94000000D02*
X181000000Y-129000000D01*
D24*
X151360000Y-129000000D02*
X167020000Y-129000000D01*
D23*
X120040000Y-129000000D02*
X110000000Y-129000000D01*
X120000000Y-59000000D02*
X135660000Y-59000000D01*
X181000000Y-94000000D02*
X181000000Y-59000000D01*
X181000000Y-129000000D02*
X167020000Y-129000000D01*
D24*
X135685000Y-129000000D02*
X151360000Y-129000000D01*
X166980000Y-59000000D02*
X181000000Y-59000000D01*
D23*
%TO.N,Net-(JP1-Pad2)*%
X123800000Y-89025000D02*
X123800000Y-87200000D01*
X123800000Y-87200000D02*
X124000000Y-87000000D01*
%TO.N,Net-(JP2-Pad2)*%
X124000000Y-94025000D02*
X124000000Y-92000000D01*
%TO.N,/daisy/SCL*%
X178500000Y-96500000D02*
X175525000Y-96500000D01*
X136000000Y-85000000D02*
X136832500Y-85832500D01*
X114000000Y-85000000D02*
X136000000Y-85000000D01*
X117000000Y-105000000D02*
X117000000Y-121000000D01*
X118000000Y-104000000D02*
X117000000Y-105000000D01*
X136832500Y-85832500D02*
X136832500Y-90175000D01*
X114000000Y-91000000D02*
X114000000Y-85000000D01*
X115000000Y-91000000D02*
X114000000Y-91000000D01*
X117000000Y-121000000D02*
X179000000Y-121000000D01*
X179000000Y-97000000D02*
X178500000Y-96500000D01*
X115475000Y-91475000D02*
X115000000Y-91000000D01*
X179000000Y-121000000D02*
X179000000Y-97000000D01*
%TO.N,/daisy/SDA*%
X178000000Y-100000000D02*
X177000000Y-99000000D01*
X133000000Y-86000000D02*
X134292500Y-87292500D01*
X177000000Y-99000000D02*
X175525000Y-99000000D01*
X121000000Y-120000000D02*
X178000000Y-120000000D01*
X115475000Y-88975000D02*
X115475000Y-86525000D01*
X116000000Y-86000000D02*
X133000000Y-86000000D01*
X178000000Y-120000000D02*
X178000000Y-100000000D01*
X121000000Y-105000000D02*
X121000000Y-120000000D01*
X120000000Y-104000000D02*
X121000000Y-105000000D01*
X134292500Y-87292500D02*
X134292500Y-90175000D01*
X115475000Y-86525000D02*
X116000000Y-86000000D01*
%TO.N,/daisy/JPB9/DIG IN*%
X125200000Y-70840000D02*
X125840000Y-70840000D01*
X127000000Y-84000000D02*
X146000000Y-84000000D01*
X146000000Y-84000000D02*
X146992500Y-84992500D01*
X127000000Y-72000000D02*
X127000000Y-84000000D01*
X146992500Y-84992500D02*
X146992500Y-90175000D01*
X125840000Y-70840000D02*
X127000000Y-72000000D01*
%TO.N,/daisy/JPB10/DIG IN*%
X149532500Y-83532500D02*
X149532500Y-90175000D01*
X140860000Y-70840000D02*
X141840000Y-70840000D01*
X144000000Y-73000000D02*
X144000000Y-83000000D01*
X141840000Y-70840000D02*
X144000000Y-73000000D01*
X144000000Y-83000000D02*
X149000000Y-83000000D01*
X149000000Y-83000000D02*
X149532500Y-83532500D01*
%TO.N,/daisy/JPB12/DIG IN*%
X156520000Y-70840000D02*
X157840000Y-70840000D01*
X153000000Y-83000000D02*
X152072500Y-83927500D01*
X157840000Y-70840000D02*
X159000000Y-72000000D01*
X159000000Y-72000000D02*
X159000000Y-83000000D01*
X159000000Y-83000000D02*
X153000000Y-83000000D01*
X152072500Y-83927500D02*
X152072500Y-90175000D01*
%TO.N,/daisy/JPB11/DIG IN*%
X156000000Y-84000000D02*
X154612500Y-85387500D01*
X174000000Y-83000000D02*
X173000000Y-84000000D01*
X172840000Y-70840000D02*
X174000000Y-72000000D01*
X173000000Y-84000000D02*
X156000000Y-84000000D01*
X154612500Y-85387500D02*
X154612500Y-90175000D01*
X172180000Y-70840000D02*
X172840000Y-70840000D01*
X174000000Y-72000000D02*
X174000000Y-83000000D01*
%TO.N,/daisy/JPB14/DIG IN*%
X160000000Y-116000000D02*
X160000000Y-103000000D01*
X160000000Y-103000000D02*
X170000000Y-103000000D01*
X161820000Y-117110000D02*
X161110000Y-117110000D01*
X170000000Y-103000000D02*
X170000000Y-85000000D01*
X158000000Y-85000000D02*
X157152500Y-85847500D01*
X161110000Y-117110000D02*
X160000000Y-116000000D01*
X157152500Y-85847500D02*
X157152500Y-90175000D01*
X170000000Y-85000000D02*
X158000000Y-85000000D01*
%TO.N,/daisy/JPB15/DIG IN*%
X144000000Y-116000000D02*
X144000000Y-102000000D01*
X169000000Y-102000000D02*
X169000000Y-86000000D01*
X145110000Y-117110000D02*
X144000000Y-116000000D01*
X169000000Y-86000000D02*
X161000000Y-86000000D01*
X159692500Y-87307500D02*
X159692500Y-90175000D01*
X146160000Y-117110000D02*
X145110000Y-117110000D01*
X144000000Y-102000000D02*
X169000000Y-102000000D01*
X161000000Y-86000000D02*
X159692500Y-87307500D01*
%TO.N,/daisy/JPB13/DIG IN*%
X168000000Y-87000000D02*
X163000000Y-87000000D01*
X168000000Y-101000000D02*
X168000000Y-87000000D01*
X128000000Y-116000000D02*
X128000000Y-106000000D01*
X130485000Y-117110000D02*
X129110000Y-117110000D01*
X129110000Y-117110000D02*
X128000000Y-116000000D01*
X162232500Y-87767500D02*
X162232500Y-90175000D01*
X128000000Y-106000000D02*
X131000000Y-103000000D01*
X131000000Y-103000000D02*
X131000000Y-101000000D01*
X163000000Y-87000000D02*
X162232500Y-87767500D01*
X131000000Y-101000000D02*
X168000000Y-101000000D01*
%TO.N,/daisy/JPB16/DIG IN*%
X167000000Y-88000000D02*
X167000000Y-100000000D01*
X165000000Y-88000000D02*
X167000000Y-88000000D01*
X167000000Y-100000000D02*
X130000000Y-100000000D01*
X164772500Y-88227500D02*
X165000000Y-88000000D01*
X113000000Y-103000000D02*
X113000000Y-116000000D01*
X114110000Y-117110000D02*
X114840000Y-117110000D01*
X164772500Y-90175000D02*
X164772500Y-88227500D01*
X130000000Y-102000000D02*
X129000000Y-103000000D01*
X130000000Y-100000000D02*
X130000000Y-102000000D01*
X129000000Y-103000000D02*
X113000000Y-103000000D01*
X113000000Y-116000000D02*
X114110000Y-117110000D01*
%TO.N,Net-(JP3-Pad2)*%
X124000000Y-99025000D02*
X124000000Y-97000000D01*
%TD*%
M02*
